<svg xmlns="http://www.w3.org/2000/svg" viewBox="0 0 35 34" width="35" height="34">
	<style>
		tspan { white-space:pre }
		.shp0 { fill: #ebebeb } 
	</style>
	<g id="Section - Our Team">
		<g id="Person 2">
			<g id="Btn-Personal-Socmed">
				<path id="behance" fill-rule="evenodd" class="shp0" d="M17 1C25.84 1 33 8.16 33 17C33 25.84 25.84 33 17 33C8.16 33 1 25.84 1 17C1 8.16 8.16 1 17 1ZM7 11L12.79 11C15.14 11 16.72 11.79 16.72 13.97C16.72 15.12 16.12 15.92 15.05 16.41C16.55 16.82 17.31 17.92 17.31 19.38C17.31 21.75 15.19 22.77 12.96 22.77L7 22.77L7 11ZM9.47 15.71L12.45 15.71C13.4 15.71 14.1 15.3 14.1 14.32C14.1 13.2 13.21 12.97 12.24 12.97L9.47 12.97L9.47 15.71ZM9.47 20.87L12.6 20.87C13.67 20.87 14.52 20.54 14.52 19.33C14.52 18.13 13.81 17.66 12.65 17.66L9.47 17.66L9.47 20.87ZM20.4 18.83C20.47 20.3 21.23 21.25 22.59 21.25C23.57 21.25 24.47 20.48 24.62 19.95L26.78 19.95C26.09 21.95 24.52 23 22.5 23C19.69 23 17.93 21.17 17.93 18.54C17.93 16 19.8 14.07 22.5 14.07C25.53 14.07 27 16.23 26.83 18.83L20.4 18.83ZM24.38 17.31C24.16 16.13 23.62 15.83 22.43 15.83C20.88 15.83 20.43 16.65 20.4 17.31L24.38 17.31ZM25.16 13.36L20.22 13.36L20.22 11.79L25.16 11.79L25.16 13.36Z" />
			</g>
		</g>
	</g>
</svg>