<svg xmlns="http://www.w3.org/2000/svg" viewBox="0 0 36 34" width="36" height="34">
	<style>
		tspan { white-space:pre }
		.shp0 { fill: #ebebeb } 
	</style>
	<g id="Section - Our Team">
		<g id="Person 2">
			<g id="Btn-Personal-Socmed">
				<path id="facebook" fill-rule="evenodd" class="shp0" d="M18 1C26.84 1 34 8.16 34 17C34 25.84 26.84 33 18 33C9.16 33 2 25.84 2 17C2 8.16 9.16 1 18 1ZM20.13 7C16.25 7 17 11 17 11L17 14L15 14L15 18L17 18L17 27L21 27L21 18L23 18L24 14L21 14C21 14 21 12.82 21 12C21 11.18 22 11 22 11L24 11L24 7C24 7 24 7 20.13 7Z" />
			</g>
		</g>
	</g>
</svg>