<svg xmlns="http://www.w3.org/2000/svg" viewBox="0 0 34 36" width="34" height="36">
	<style>
		tspan { white-space:pre }
		.shp0 { fill: #ebebeb } 
	</style>
	<g id="Section - Our Team">
		<g id="Person 2">
			<g id="Btn-Personal-Socmed">
				<path id="google+" fill-rule="evenodd" class="shp0" d="M17 1C25.84 1 33 8.17 33 17C33 25.84 25.84 33.01 17 33.01C8.16 33.01 1 25.84 1 17C1 8.17 8.16 1 17 1ZM15.65 8.27C16.44 8.94 18.08 10.36 18.08 13.05C18.08 15.67 16.65 16.91 15.21 18.08C14.77 18.54 14.25 19.04 14.25 19.82C14.25 20.6 14.77 21.03 15.14 21.34L16.37 22.34C17.88 23.65 19.25 24.85 19.25 27.3C19.25 30.63 16.13 34 10.25 34C5.29 34 2.89 31.55 2.89 28.93C2.89 27.65 3.51 25.85 5.53 24.61C7.65 23.26 10.52 23.08 12.06 22.98C11.58 22.34 11.04 21.66 11.04 20.57C11.04 19.96 11.21 19.61 11.38 19.18C11 19.22 10.63 19.25 10.28 19.25C6.66 19.25 4.6 16.45 4.6 13.69C4.6 12.06 5.32 10.25 6.79 8.94C8.75 7.27 11.07 6.99 12.92 6.99L19.96 6.99L17.78 8.27L15.65 8.27L15.65 8.27ZM13.23 24C12.95 23.97 12.78 23.97 12.44 23.97C12.13 23.97 10.28 24.04 8.85 24.54C8.09 24.82 5.9 25.67 5.9 28.19C5.9 30.7 8.27 32.51 11.93 32.51C15.21 32.51 16.95 30.88 16.95 28.68C16.95 26.87 15.83 25.92 13.23 24L13.23 24ZM14.22 17.27C15 16.45 15.07 15.32 15.07 14.68C15.07 12.13 13.6 8.16 10.76 8.16C9.87 8.16 8.92 8.62 8.37 9.33C7.79 10.07 7.61 11.03 7.61 11.95C7.61 14.33 8.95 18.26 11.89 18.26C12.75 18.26 13.67 17.84 14.22 17.27L14.22 17.27ZM22.91 7L24.91 7L24.91 15L22.91 15L22.91 7ZM19.91 10L27.91 10L27.91 12L19.91 12L19.91 10Z" />
			</g>
		</g>
	</g>
</svg>