<svg xmlns="http://www.w3.org/2000/svg" viewBox="0 0 35 34" width="35" height="34">
	<style>
		tspan { white-space:pre }
		.shp0 { fill: #ebebeb } 
	</style>
	<g id="Section - Our Team">
		<g id="Person 2">
			<g id="Btn-Personal-Socmed">
				<path id="linked-in" fill-rule="evenodd" class="shp0" d="M17 1C25.84 1 33 8.16 33 17C33 25.84 25.84 33 17 33C8.16 33 1 25.84 1 17C1 8.16 8.16 1 17 1ZM8.48 8.46C8.17 8.77 8.01 9.14 8.01 9.57C8.01 10.02 8.17 10.4 8.49 10.72C8.81 11.03 9.2 11.19 9.65 11.19C10.1 11.19 10.48 11.04 10.79 10.73C11.11 10.42 11.27 10.04 11.27 9.6C11.27 9.16 11.11 8.78 10.79 8.47C10.47 8.16 10.08 8 9.63 8C9.19 8 8.8 8.15 8.48 8.46ZM8 24L11.27 24L11.27 11.99L8 11.99L8 24ZM13.73 24L16.99 24L16.99 19.64C16.99 18.36 17.04 17.52 17.15 17.14C17.36 16.4 17.73 15.82 18.27 15.4C18.81 14.98 19.46 14.77 20.21 14.77C20.79 14.77 21.27 14.9 21.67 15.15C22.06 15.4 22.34 15.77 22.5 16.26C22.66 16.74 22.74 17.72 22.74 19.19L22.74 24L26 24L26 16.44C26 15.02 25.51 13.94 24.65 13.22C23.62 12.36 22.61 11.94 21.14 11.94C20.43 11.94 19.96 12.05 19.28 12.28C18.59 12.52 17.85 13 17 13.59L17 11.99L13.73 11.99L13.73 24Z" />
			</g>
		</g>
	</g>
</svg>