<svg xmlns="http://www.w3.org/2000/svg" viewBox="0 0 35 34" width="35" height="34">
	<style>
		tspan { white-space:pre }
		.shp0 { fill: #ebebeb } 
	</style>
	<g id="Section - Our Team">
		<g id="Person 2">
			<g id="Btn-Personal-Socmed">
				<path id="twitter" fill-rule="evenodd" class="shp0" d="M17 1C25.84 1 33 8.16 33 17C33 25.84 25.84 33 17 33C8.16 33 1 25.84 1 17C1 8.16 8.16 1 17 1ZM26.9 11.2C26.23 11.53 25.52 11.74 24.78 11.84C25.54 11.34 26.12 10.55 26.4 9.61C25.69 10.07 24.9 10.41 24.05 10.59C23.38 9.8 22.42 9.31 21.36 9.31C19.32 9.31 17.67 11.12 17.67 13.35C17.67 13.67 17.7 13.97 17.76 14.27C14.69 14.1 11.97 12.49 10.15 10.05C9.83 10.65 9.65 11.34 9.65 12.08C9.65 13.48 10.3 14.72 11.29 15.44C10.69 15.42 10.12 15.24 9.62 14.94C9.62 14.95 9.62 14.97 9.62 14.99C9.62 16.95 10.89 18.58 12.58 18.95C12.27 19.04 11.94 19.09 11.61 19.09C11.37 19.09 11.14 19.07 10.91 19.02C11.38 20.62 12.75 21.79 14.36 21.82C13.1 22.91 11.51 23.55 9.78 23.55C9.48 23.55 9.18 23.53 8.9 23.5C10.53 24.64 12.47 25.31 14.56 25.31C21.35 25.31 25.06 19.16 25.06 13.82C25.06 13.64 25.06 13.47 25.05 13.3C25.78 12.73 26.4 12.02 26.9 11.2Z" />
			</g>
		</g>
	</g>
</svg>